# xmcd
#
# Track frame offsets:
#	150
#	17065
#	30025
#
# Disc length: 539 seconds
#
# Revision: 0
# Processed by: cddbd v1.5PL3 Copyright (c) Steve Scherf et al.
# Submitted via: audiograbber 1.83.01
#
DISCID=11021903
DTITLE=Tom Astor - Dieser Tag kann dein Tag sein
DYEAR=1996
DGENRE=
TTITLE0=Dieser Tag kann Dein Tag sein
TTITLE1=Wie Regen,Fluss und Meer
TTITLE2=I Will Rock`n`Roll with you
EXTD=
EXTT0=
EXTT1=
EXTT2=
PLAYORDER=
